<svg xmlns="http://www.w3.org/2000/svg" width="400" height="505.59"><g fill-rule="evenodd"><path d="M199.12 1.91c-2.63 2.3-30.77 30.57-30.6 30.74.08.08 7.46-7.14 16.4-16.05 8.95-8.91 16.2-16.2 16.1-16.2-.1 0-.95.68-1.9 1.51m23.76 14.73c8.95 8.98 16.38 16.24 16.5 16.12.25-.25-31.56-32.1-32.28-32.31-.28-.08 6.83 7.2 15.78 16.19m-26.45 5.4l-7.23 7.23v28.36l-26.6 26.6c-24.83 24.83-27.26 27.37-26.2 27.37.22 0 .4-.2.4-.44s11.83-12.27 26.3-26.74a2445.67 2445.67 0 0028.9-29.2c5.82-6.47 7.47-7.42 12.34-7.14 3.99.23 5.4 1.12 10.86 6.77 7.4 7.67 19.2 19.55 19.4 19.55.74 0-.12-1.21-1.64-2.33-1-.73-1.93-1.66-2.08-2.05-.16-.4-1.21-1.46-2.35-2.36-1.13-.9-2.18-1.97-2.31-2.4-.13-.42-.92-1.22-1.75-1.76a10.8 10.8 0 01-2.48-2.45 5.03 5.03 0 00-1.7-1.68c-1.84-.6-1.9-1.2-1.8-15.94l.11-13.9 5.85 5.84c3.22 3.2 6 5.82 6.2 5.82.39-.02-26.29-26.35-26.72-26.37-.14-.01-3.52 3.23-7.5 7.21m-9.82 9.16c-.86.88-1.45 1.7-1.3 1.84.2.21 3.49-2.89 3.49-3.3 0-.48-.85.09-2.2 1.46m-4.4 4.4c-.85.88-1.45 1.7-1.33 1.81.2.2 3.53-2.87 3.53-3.25 0-.5-.83.05-2.2 1.44m57.6.78c0 2.49-1.2 4.46-3.07 5.05-.4.13-.73.4-.73.6 0 .64.62.42 1.84-.62.64-.55 1.26-1 1.39-1 .91 0 1.9-4.28 1.33-5.77-.48-1.24-.76-.6-.76 1.74M167.7 36c0 .99.09 1.4.18.9.1-.5.1-1.3 0-1.8s-.17-.09-.17.9m.29 2.22c0 .69 1.2 2.15 2.12 2.6.88.42.88.42.07-.3-.45-.4-1.12-1.17-1.5-1.7-.38-.55-.69-.82-.69-.6m10.18 1.44c-1.63 1.71-1.34 1.72.92.02 1.24-.93 1.68-1.68.98-1.68-.17 0-1.03.75-1.9 1.66m53.02 1.94c0 .48 1.12 1.01 1.45.68.12-.12-.16-.42-.62-.66-.57-.31-.83-.32-.83-.02m-58.4.4c0 .22.36.4.8.4.44 0 .8-.18.8-.4 0-.22-.36-.4-.8-.4-.44 0-.8.18-.8.4m63 33.62c1.28 1.57 2.67 2.84 2.88 2.63.32-.32-.19-.91-1.99-2.3-1.35-1.06-1.53-1.12-.89-.33m-39.14 6.9a6114.68 6114.68 0 00-25.46 25.08c-17.91 17.72-20.86 20.33-23.2 20.44-.71.04-.8.1-.28.24 2.68.7 3.96-.39 23.07-19.45L189 90.67l.1 17.25.1 17.26 3.1-3.17c7.15-7.31 15.35-7.85 22.43-1.48a28.22 28.22 0 013.05 3.04c.2.35 20.24 20.52 44.52 44.83 49.11 49.16 47.33 47.35 48.22 49 .36.66.66 1.06.66.88.07-1.4-6.88-8.61-46.97-48.63-24.98-24.94-45.51-45.73-45.63-46.2-.11-.47-.15-8.1-.1-16.96l.12-16.1 10.9 10.86c6 5.97 10.9 10.74 10.9 10.6 0-.37-33.15-33.25-35.55-35.27l-1.11-.94-7.08 6.88m42.4-3.85c-.25.25 13.66 14.13 14.17 14.13.23 0-.72-1.15-2.11-2.55s-2.66-2.47-2.82-2.37c-.17.09-.3-.03-.3-.27 0-.53-8.67-9.2-8.93-8.94M254.4 94.2c.51.55 1.03.9 1.13.8.27-.27-1.15-1.8-1.66-1.8-.23 0 .01.45.53 1m1.6 1.48c.35.49 12.02 12.24 12.7 12.8.36.28.18-.17-.4-1.02a9.1 9.1 0 00-2.25-2.29 9.17 9.17 0 01-2.29-2.35c-.58-.9-1.3-1.62-1.6-1.62-.29 0-1.3-.98-2.24-2.18-.95-1.2-1.89-2.19-2.09-2.2-.2-.01-.74-.33-1.2-.72-.46-.38-.74-.57-.63-.42m14.33 14.73c.51.76 1.03 1.7 1.15 2.09.12.39.4.7.6.7.23 0 .28-.31.12-.7-.16-.39-.37-.97-.47-1.3-.1-.33-.67-.96-1.26-1.4l-1.07-.78.93 1.39M244 115.72a46.37 46.37 0 004.06 3.9c.75.42-4.94-5.4-6.46-6.62-.55-.44.53.79 2.4 2.72m6.98 7.01c1.64 1.73 1.83 1.87 1.81 1.37 0-.16-.77-.91-1.7-1.67l-1.69-1.36 1.58 1.66m20.62-1.19c0 .2-.45 1.01-1 1.82l-1 1.48.97-.72c1.31-.97 2.27-2.92 1.43-2.92-.22 0-.4.16-.4.34m-135.25 1.96c.5.93 2.45 2.74 2.45 2.27 0-.38-2.3-2.97-2.63-2.97-.11 0-.03.31.18.7m117.33 1.74c.34 1.02 3.3 2.74 5.12 2.97l1.8.23-2.07-.75a16.06 16.06 0 01-3.55-1.88c-.82-.62-1.4-.88-1.3-.57m14.43.75a11.5 11.5 0 01-3.18 1.58c-2.45.84-1.9 1.15.68.38 1.6-.48 3.94-2.13 3.56-2.51-.13-.13-.6.12-1.06.55m-81.7 1.4c-.75.77-1.23 1.52-1.08 1.68.3.29 3.07-2.2 3.07-2.75 0-.65-.68-.28-2 1.07m-46.01-.21a6.79 6.79 0 003.96 1.2c.36-.02-.25-.3-1.35-.64a9.6 9.6 0 01-2.38-.97c-.2-.2-.57-.37-.8-.36-.23 0 .02.35.57.77m41.62 4.61c-.75.77-1.23 1.52-1.08 1.68.29.28 3.03-2.21 3.06-2.77.02-.64-.69-.24-1.98 1.1m-4 4c-.98.96-1.65 1.9-1.48 2.06.3.3 3.47-2.96 3.47-3.56 0-.45-.06-.4-1.99 1.5m-4.2 4.2c-.86.87-1.43 1.72-1.27 1.87.28.28 3.04-2.58 3.05-3.17.01-.5-.16-.37-1.78 1.3m-4.39 4.4c-.87.87-1.48 1.67-1.36 1.79.2.2 3.54-2.84 3.54-3.22 0-.48-.76.02-2.18 1.43m-4.01 4c-.86.87-1.46 1.68-1.34 1.8.2.2 3.53-2.87 3.53-3.25 0-.5-.83.05-2.2 1.44M197 158c-3.96 3.96-7.31 7.2-7.46 7.2-.54 0-70.08 69.6-69.81 69.86.15.16 15.8-15.23 34.77-34.2l34.5-34.48.2 24.42.2 24.42 1.96-2.01c6.6-6.8 17.84-6.95 24.8-.31 1.1 1.04 2.05 1.9 2.12 1.9.06 0 .12-11.2.12-24.87v-24.88l26.22 26.18c14.41 14.4 30.25 30.21 35.18 35.15 4.93 4.94 9.06 8.9 9.17 8.79.28-.29-84.05-84.37-84.62-84.37-.09 0-3.4 3.24-7.35 7.2m-35.96-5.2c-.86.9-1.49 1.69-1.4 1.78.17.17 3.56-2.87 3.56-3.2 0-.52-.76-.02-2.16 1.43M156.8 157c-.97.99-1.59 1.8-1.37 1.8.22 0 1.2-.81 2.17-1.8s1.59-1.8 1.37-1.8c-.22 0-1.2.81-2.17 1.8m-4.2 4.2c-.86.88-1.4 1.6-1.18 1.59.4-.01 3.38-2.66 3.38-3 0-.54-.8-.03-2.2 1.41m-4.2 4.2c-.97.99-1.59 1.8-1.37 1.8.22 0 1.2-.81 2.17-1.8s1.59-1.8 1.37-1.8c-.22 0-1.2.81-2.17 1.8m-4 4c-.74.76-1.26 1.48-1.15 1.59.11.1.9-.52 1.76-1.4.85-.87 1.37-1.59 1.15-1.59-.22 0-1.01.63-1.75 1.4m-4.4 4.4c-.75.76-1.27 1.48-1.16 1.59.11.1.9-.52 1.76-1.4.85-.87 1.37-1.59 1.15-1.59-.22 0-1.01.63-1.75 1.4m-4.2 4.2c-.86.87-1.47 1.68-1.36 1.78.11.11 1-.6 1.96-1.59.97-.98 1.58-1.79 1.35-1.79-.22 0-1.1.72-1.95 1.6m-4.11 3.98c-1.81 2.12-1.63 2.5.3.62 1.51-1.48 1.97-2.24 1.3-2.17-.17.02-.89.72-1.6 1.55m-4.05 4.1c-2.28 2.39-2.08 2.94.23.63 1.03-1.04 1.78-1.99 1.65-2.12-.13-.12-.97.55-1.88 1.5m-3.48 3.45c-.42.4-1.34 1.35-2.04 2.1s-2 2.07-2.9 2.93c-.9.86-1.63 1.76-1.63 2 0 .23 1.75-1.32 3.88-3.46 2.14-2.13 3.79-3.97 3.67-4.09-.11-.12-.56.12-.98.52m-9.3 9.32c-.92.92-1.58 1.77-1.46 1.88.12.12 1.06-.63 2.1-1.66 1.03-1.03 1.7-1.88 1.46-1.88-.22 0-1.17.75-2.1 1.66m-4.01 3.97c-.96.89-1.63 1.73-1.49 1.87.14.15 1.1-.58 2.14-1.62 2.3-2.3 1.77-2.5-.65-.25m-4.38 4.42c-.94.9-1.61 1.75-1.48 1.88.12.13 1.07-.62 2.1-1.65 2.32-2.3 1.77-2.5-.62-.23m-4.23 4.18c-1.08.99-1.84 1.92-1.69 2.06.15.15 1.2-.67 2.35-1.8 2.55-2.56 2.04-2.75-.66-.26m-3.85 4.23a7.6 7.6 0 00-1.2 2.09c0 .24.3-.02.68-.56.37-.54.77-1.08.9-1.19.9-.8 1.66-2 1.28-2-.25 0-1 .75-1.66 1.66m120.6.3c1.28 1.53 11 11.16 11 10.89 0-.14.18.02.38.35.56.9 129.75 130 129.92 129.84.13-.14-137.89-138.23-140.8-140.88-.94-.85-1.08-.9-.5-.2m-31.8.64c-.51.55-.81 1.12-.67 1.27.3.29 2.27-1.4 2.27-1.94 0-.61-.65-.34-1.6.67m124.25 3c.44 1.27.46 7.81.03 9.4-.3 1.08-.28 1.12.2.4.74-1.14.73-9.56-.03-10.28-.45-.44-.48-.36-.2.48m-128.33 1.1c-1.12 1.31-1.3 1.82-.46 1.38 1.25-.68 2.38-2.08 1.66-2.08-.33 0-.87.31-1.2.7m-87.67 1c-.39 1.46-.28 5.1.15 5.1.22 0 .4-.95.4-2.1 0-1.16.12-2.5.25-3 .14-.5.06-.9-.16-.9s-.5.4-.64.9m83.55 3.27c-.66.53-1.06 1.1-.89 1.27.17.18.9-.26 1.6-.96 1.5-1.5 1.03-1.7-.71-.31m-83.4 2.83c0 .33.18.6.4.6.22 0 .4-.27.4-.6 0-.33-.18-.6-.4-.6-.22 0-.4.27-.4.6m79 1.57c-.66.53-1.06 1.1-.89 1.27.17.18.9-.26 1.6-.96 1.5-1.5 1.03-1.7-.71-.31m-77.4 2.08c0 .67 2.35 3.75 2.86 3.75.38 0-.39-1.2-1.28-2-.13-.11-.53-.64-.9-1.19-.38-.54-.68-.8-.68-.56m211.51 1.93c-.82.94-2.3 2.13-3.3 2.66-1 .53-1.81 1.1-1.81 1.29 0 .43 1.7-.09 2.2-.68.22-.25 1.17-1.06 2.1-1.8 1.55-1.2 2.77-2.73 2.43-3.04-.07-.06-.8.64-1.62 1.57m-138.06.05c-.63.56-1.03 1.13-.88 1.27.14.14.83-.32 1.53-1.02 1.52-1.51 1.01-1.7-.65-.25m-52.06 2.18c-.13.22-1.15.86-2.26 1.42-2.34 1.2-2.3 1.84.06.78 1.3-.59 3.34-2.61 2.64-2.61-.1 0-.3.18-.44.4m-17.16.7c.98 1.02 3.28 2.2 3.9 1.99.26-.1-.52-.69-1.73-1.32-2.98-1.58-3.04-1.6-2.17-.68m188.81-.13c.26.68 3.75 2.24 5 2.24 1.01 0 .73-.5-.34-.6-.38-.03-1.64-.54-2.79-1.13-1.38-.7-2.01-.88-1.87-.5m-123.99 1.66c-.63.56-1.03 1.13-.88 1.27.14.14.83-.32 1.53-1.02 1.52-1.51 1.01-1.7-.65-.25m134.55.17c-.49.31-.43.39.3.4.5 0 .9-.18.9-.4 0-.5-.42-.5-1.2 0m-3.4.4c-.14.23.2.4.8.4.6 0 .94-.17.8-.4-.14-.22-.5-.4-.8-.4-.3 0-.66.18-.8.4m-135.1 3.39c-1.01 1.39-.86 1.7.3.61.99-.93 1.29-1.61.7-1.59-.17 0-.62.45-1 .98m-4.23 4.2c-1.23 1.67-1.08 1.96.33.61a4.9 4.9 0 001.2-1.47c0-.67-.68-.3-1.53.85m-4.44 4.38c-1.2 1.67-1.02 1.97.37.64 1.22-1.16 1.5-1.8.83-1.8-.2 0-.75.52-1.2 1.16m42.76 6.63l-7.39 7.37.2 102.72.2 102.72.95 2.3c4.64 11.16 21.75 11.35 27 .3l.85-1.8.2-103.4c.13-65.16.06-103.46-.18-103.56-.2-.09-3.1-2.88-6.42-6.2a412.06 412.06 0 00-7.03-6.92l-.99-.89-7.39 7.37m-46.76-2.75c-1.24 1.58-1 2.06.37.75a4.9 4.9 0 001.2-1.47c0-.66-.76-.3-1.57.72m-4.43 4.35c-.51.55-.81 1.12-.67 1.27.3.29 2.27-1.4 2.27-1.94 0-.61-.65-.34-1.6.67m-4 4c-.51.55-.81 1.12-.67 1.27.3.29 2.27-1.4 2.27-1.94 0-.61-.65-.34-1.6.67m78 2.57c0 .4 2.94 2.83 3.44 2.83.18 0-.38-.72-1.24-1.6-1.54-1.58-2.2-1.95-2.2-1.23m-32.6 1.23c-.63.66-.97 1.2-.75 1.2.52 0 2.35-1.93 2.09-2.2-.1-.1-.71.35-1.34 1m-49.67.5c-1.17 1.3-1.6 2.1-.9 1.7.92-.52 2.37-1.91 2.37-2.27 0-.6-.65-.35-1.47.57m86.27 2.27c0 .47 2.9 2.87 3.15 2.61.24-.23-2.37-2.98-2.83-2.98-.18 0-.32.17-.32.37m-40.8 1.43c-.52.55-.76 1-.53 1 .5 0 1.93-1.54 1.66-1.8-.1-.1-.62.25-1.13.8m-49.88.77c-.62.53-.98 1.1-.8 1.27.16.18.88-.26 1.59-.96 1.48-1.49.87-1.74-.79-.31m95.08 2.19c0 .51 2.84 2.94 3.12 2.66.25-.26-2.3-3.02-2.8-3.02-.17 0-.32.16-.32.36m-49.3 1.23c-.71.65-1.12 1.2-.9 1.2.4.01 2.6-1.85 2.6-2.2 0-.4-.44-.14-1.7 1m-49.7.58c-.66.52-1.06 1.1-.89 1.27.18.18.9-.26 1.6-.96 1.5-1.5 1.03-1.7-.71-.31m103.35 2.53c.58 1.08 2.41 2.67 2.72 2.36.15-.15-.33-.9-1.08-1.67-1.44-1.49-2.26-1.83-1.64-.69m-57.73.88c-1.29 1.34-.97 1.62.53.47.53-.4.88-.95.8-1.21-.1-.29-.63 0-1.33.74m-50 1.02c-.66.53-1.05 1.1-.9 1.26.17.17.88-.28 1.59-.98 1.5-1.5 1.03-1.69-.7-.28m112.54 2.94c1.05 1.46 2 2.24 2.33 1.91.3-.29-2.23-3.05-2.79-3.05-.19 0 .02.51.46 1.14m-66.93.44c-1.27 1.33-.86 1.67.6.49.49-.4.82-.95.73-1.22-.1-.3-.6-.03-1.33.73m-49.77.7c-.75.74-1.24 1.47-1.1 1.6.28.29 3.05-2.23 3.05-2.76 0-.57-.57-.23-1.95 1.15m121.15 3.32c1.4 1.78 1.94 2.2 2.3 1.84.28-.28-2.67-3.43-3.22-3.43-.19 0 .22.72.92 1.6m-75.58.18c-.73.77-.81 1.02-.34 1.02.75 0 1.65-1 1.45-1.61-.08-.24-.58.02-1.1.59m-49.53.6c-1.28 1.63-1.11 1.97.3.62 1.16-1.11 1.52-1.82.9-1.78-.16.01-.7.54-1.2 1.17m128.31 1.82c.03.68 2.73 3.58 3.05 3.27.16-.17-.46-1.06-1.38-1.99-.92-.92-1.67-1.5-1.67-1.28m-83.01 1.8c-.84.86-.98 1.19-.52 1.19.6 0 2.16-1.9 1.82-2.23-.09-.09-.67.38-1.3 1.03m-49.55.57c-1.47 1.93-1.3 2.23.35.63.77-.75 1.4-1.5 1.4-1.68 0-.7-.76-.25-1.75 1.05M248 293.73c0 .4 3.7 3.9 3.9 3.7.27-.27-3.06-3.83-3.58-3.83-.18 0-.32.06-.32.13m-90.8 2.07c-.51.55-.82 1.11-.68 1.25.26.26 1.84-1.4 1.87-1.95.02-.48-.2-.36-1.19.7m-49.57.45c-1.24 1.58-1 2.06.37.75a4.9 4.9 0 001.2-1.48c0-.65-.76-.3-1.57.73m144.77 1.9c0 .38 3.34 3.45 3.53 3.25.25-.25-2.73-3.4-3.21-3.4-.18 0-.32.07-.32.15m-99.2 1.65c-.52.55-.76 1-.53 1 .5 0 1.93-1.54 1.66-1.8-.1-.1-.62.25-1.13.8m-49.78.65c-.58.69-.95 1.35-.83 1.47.25.26 2.61-1.9 2.61-2.4 0-.67-.77-.27-1.78.93m153.39 2.25c0 .37 3.02 2.9 3.44 2.9.17 0-.4-.72-1.25-1.6-1.5-1.53-2.2-1.95-2.2-1.3m-108.33 1.82c-1.75 1.81-1.6 2.14.22.48.81-.75 1.38-1.46 1.27-1.57-.12-.12-.79.37-1.49 1.1M99 304.8c-.63.65-1.02 1.31-.87 1.47.3.29 2.67-1.8 2.67-2.34 0-.64-.66-.31-1.8.87m161.8 1.91c0 .38 3.42 3.29 3.86 3.29.17 0-.49-.81-1.46-1.8-1.7-1.73-2.4-2.16-2.4-1.49m-116 1.5c-.52.54-.76.99-.53.99.5 0 1.93-1.53 1.66-1.8-.1-.1-.62.25-1.13.8m-50 .8c-.51.55-.81 1.12-.67 1.27.3.29 2.27-1.4 2.27-1.94 0-.61-.65-.34-1.6.67m170.4 2.17c0 .4 2.94 2.83 3.44 2.83.18 0-.38-.72-1.24-1.6-1.54-1.58-2.2-1.95-2.2-1.23m-158.9 35.28c-19.08 19.11-34.57 34.75-34.42 34.75.24 0 39.47-38.96 45.42-45.1 1.12-1.16 2.28-2.1 2.57-2.1.29 0 .53-.23.53-.52 0-.65 2.86-3.48 3.52-3.48a.5.5 0 00.48-.5c0-.27 3.88-4.34 8.6-9.04 4.73-4.69 8.6-8.6 8.6-8.7 0-.58-4.06 3.4-35.3 34.69M90.6 313.2c-.63.65-1.02 1.31-.87 1.47.3.29 2.67-1.8 2.67-2.35 0-.63-.66-.3-1.8.88m178.6 1.97c0 .44 3.31 3.23 3.82 3.23.2 0-.45-.81-1.42-1.8-1.74-1.77-2.4-2.16-2.4-1.43m-182.65 2.18c-.63.54-1.01 1.12-.84 1.3.17.17.8-.17 1.38-.76 1.39-1.39.95-1.83-.54-.54m187.43 2.62c.5.94 2.46 2.52 2.75 2.23.25-.25-2.34-3-2.82-3-.19 0-.15.35.07.77M65.83 338.1c-9.74 9.73-17.94 18.15-18.21 18.7-.28.55 7.88-7.37 18.13-17.6a2355.46 2355.46 0 0018.65-18.7c0-.78-3.54 2.58-18.57 17.6m212.55-13.73c.5.94 2.46 2.52 2.75 2.23.25-.25-2.33-3-2.82-3-.19 0-.15.35.07.77m4.82 4.82c1.4 1.78 1.94 2.2 2.3 1.84.28-.28-2.67-3.43-3.21-3.43-.2 0 .21.72.9 1.6m4.41 4.4c1.19 1.5 2 2.02 2 1.28 0-.41-2.53-2.88-2.95-2.88-.18 0 .25.72.95 1.6m2.82 2.2c.03.68 3.13 3.98 3.44 3.67.17-.16-.55-1.14-1.58-2.18-1.03-1.03-1.87-1.7-1.86-1.49m4.4 4.4c.02.66 2.76 3.56 3.06 3.25.16-.15-.48-1.03-1.4-1.96-.92-.92-1.67-1.5-1.66-1.28m3.58 3.94c0 .37 3.74 3.84 3.94 3.65.24-.25-3.14-3.8-3.62-3.8-.18 0-.32.07-.32.15m4.47 4.57c.2.51 3.39 3.28 3.76 3.28.19 0-.46-.81-1.43-1.8-1.6-1.63-2.68-2.31-2.33-1.48m4.34 4.38c0 .37 3.02 2.9 3.44 2.9.17 0-.4-.72-1.25-1.6-1.5-1.53-2.2-1.95-2.2-1.3m4 4.05c0 .4 3.37 3.25 3.85 3.25.17 0-.48-.81-1.45-1.8-1.72-1.75-2.4-2.16-2.4-1.45M46.06 359.1c-2.5 3.1-2.48 16.1.02 16.1.23 0 .28-.3.12-.7-2.1-5.05-1.88-11.06.58-15.66.62-1.15.34-1.05-.72.26m315.92 1.57c1.75 4.62 1.82 8.4.24 13.53-.13.44-.02.35.26-.2.27-.55.68-1.13.9-1.29.58-.4.56-9.85-.02-10.22-.24-.16-.55-.74-.68-1.29a5.68 5.68 0 00-.87-1.8c-.47-.6-.43-.28.17 1.27m-46.38.9c0 .4 2.94 2.83 3.44 2.83.18 0-.38-.72-1.24-1.6-1.54-1.58-2.2-1.95-2.2-1.23m4.38 4.4c.48.89 2.9 2.88 3.18 2.6.23-.23-2.8-3.37-3.26-3.37-.18 0-.14.35.08.77m4.82 4.83c.87 1.22 2.4 2.3 2.4 1.7 0-.42-2.52-2.9-2.95-2.9-.17 0 .08.54.55 1.2m4.8 4.8c1.19 1.5 2 2.02 2 1.28 0-.41-2.53-2.88-2.95-2.88-.18 0 .25.72.95 1.6m31.76.36c-1.37 2.89-5.48 6.28-9.16 7.57-1.32.46-2.09.84-1.7.85 3.38.08 12.95-7.46 11.42-9-.1-.1-.36.16-.56.58m-314.94-.16c0 .22.37.85.82 1.4.54.66.67.73.4.2-.67-1.3-1.23-2.03-1.23-1.6m286 2c.03.67 2.35 3.17 2.66 2.86.16-.16-.38-.95-1.19-1.77-.81-.81-1.47-1.3-1.46-1.08m-284.02.85c0 1.13 5.53 4.66 8 5.1l1.4.26-1.35-.6a7.12 7.12 0 00-1.8-.62c-.52 0-2.07-1.06-4.62-3.13-.9-.74-1.63-1.2-1.63-1.01m20 4.04c-.77.35-2.39.86-3.6 1.13-1.3.3-1.77.52-1.14.54 1.3.04 6.22-1.45 6.55-1.98.32-.53-.14-.45-1.81.31m269-.29c.29.45 2.86 1.6 3.55 1.57.25 0-.19-.33-.97-.72-2.13-1.07-2.86-1.3-2.57-.85M58.5 384.28c.38.1 1.02.1 1.4 0 .38-.1.07-.19-.7-.19s-1.09.09-.7.19m285.1.52c0 .23 1.2.4 2.8.4 1.6 0 2.8-.17 2.8-.4s-1.2-.4-2.8-.4c-1.6 0-2.8.17-2.8.4" fill="#2a4a38"/><path d="M202 .78c-1.5.8-32.81 31.98-33.27 33.13-1.7 4.3 3.03 9.07 6.99 7.03.79-.4 7.4-6.65 14.69-13.86 7.28-7.22 13.4-13.07 13.6-13 .2.06 6.45 6.18 13.89 13.59 8.71 8.68 13.9 13.57 14.61 13.74.6.15 1.09.44 1.09.63 0 .2.27.36.6.36.33 0 .6-.14.6-.32 0-.17.62-.54 1.38-.82 2.45-.88 3.53-2.63 3.33-5.37l-.16-2.34-16.18-16.2C205.2-.66 205-.8 202 .78m-1.62 48.41c-2.99 1.03-62.28 60.03-63.91 63.6a10.37 10.37 0 009.5 14.8c4.76 0 3.95.69 31.96-27.29 14.04-14.02 25.69-25.5 25.9-25.5.2 0 11.88 11.51 25.97 25.58 28.02 28 27.08 27.2 31.85 27.21 8.04.03 13-8.34 9.2-15.51-.38-.73-14.32-14.99-30.97-31.68l-30.27-30.36-2.65-.82c-3.22-1-3.76-1-6.58-.03m-1.27 68.55c-2.97 1.25 1.9-3.46-52.51 50.9-41.17 41.16-47.78 47.92-48.94 50.1-4.62 8.7 2.2 19.46 12.3 19.44 6 0 3.58 2.09 43.35-37.58 19.41-19.36 38.85-38.71 43.2-43l7.9-7.78 42.9 42.87c35.96 35.94 43.2 43 44.82 43.69 13.4 5.68 25.46-8.84 16.86-20.3-4.05-5.4-96.24-96.78-98.79-97.92-3.5-1.58-7.96-1.74-11.1-.42m.86 91.21a17.52 17.52 0 00-4.47 1.83c-3.37 2.04-147.35 146.27-148.81 149.06-6.6 12.65 6.13 27.5 19.86 23.16 3.86-1.22 3.48-.85 62.77-60.02 31.5-31.45 61.2-61.04 65.99-65.76l8.7-8.57 65.79 65.75c36.19 36.17 66.53 66.26 67.44 66.87 14.13 9.49 32.1-6.63 23.85-21.4-1.93-3.44-146.23-147.71-149.45-149.4-3.77-2-7.33-2.46-11.67-1.52" fill="#63cb43"/><path d="M199.86 2.1c-1.14 1.15-1.23 1.3-.28.45.78-.68 1.78-1.44 2.22-1.69.44-.24.56-.44.28-.45-.3 0-1.29.76-2.22 1.69m-4.66 4.5c-.97.99-1.68 1.8-1.57 1.8.11 0 1-.81 1.97-1.8s1.68-1.8 1.57-1.8c-.11 0-1 .81-1.97 1.8m-4.4 4.4c-.97.99-1.68 1.8-1.57 1.8.11 0 1-.81 1.97-1.8s1.68-1.8 1.57-1.8c-.11 0-1 .81-1.97 1.8m-12.2 12.3l-10 10.1 10.1-10c5.56-5.5 10.1-10.04 10.1-10.1 0-.28-.91.61-10.2 10m12 3.56c-7.04 7.04-13.34 13.15-14 13.57-.66.42-.97.77-.7.77.29 0 1.3-.72 2.25-1.6.96-.88 1.94-1.6 2.2-1.6.25 0 .45-.23.45-.52 0-.62 2.7-3.26 3.7-3.61.38-.13.7-.5.7-.8 0-.3 1.04-1.5 2.3-2.66a509.7 509.7 0 009.4-9.15l7.1-7.05 7.3 7.2 7.3 7.19-7.2-7.3c-3.95-4.02-7.37-7.29-7.6-7.27-.22.02-6.16 5.8-13.2 12.83m43.8 1.74c.75.77 1.45 1.4 1.56 1.4.1 0-.41-.63-1.16-1.4a8.71 8.71 0 00-1.56-1.4c-.1 0 .41.63 1.16 1.4m5.3 7.8c0 .77.08 1.09.18.7.1-.38.1-1.02 0-1.4-.1-.39-.19-.07-.19.7m-1.11 3.23c-.15.24-.83.78-1.52 1.2-.7.42-1.04.77-.77.77.52 0 3.32-2.37 2.83-2.39-.15 0-.4.19-.54.42m-39.18 9.55c-2.07.98-1.74.98 1 .02 1.21-.43 1.84-.78 1.4-.78-.44 0-1.52.34-2.4.76m7.71.06c2.2.7 3.06 1.31 6.8 4.84l4.29 4.04-4.08-4.07c-4.06-4.04-6.49-5.65-8.52-5.62-.59 0 .04.34 1.51.81m-11.67 2.63c-1.01 1.02-1.84 2.05-1.84 2.28 0 .25.13.27.34.03l2.05-2.28c2.2-2.44 1.84-2.46-.55-.03m-19.23 19.72L160.23 87.8l16.17-16.08c8.89-8.85 16.08-16.14 15.98-16.21-.1-.07-7.37 7.16-16.17 16.08M226 66.6c4.5 4.51 8.28 8.2 8.4 8.2.1 0-3.5-3.69-8-8.2s-8.28-8.2-8.4-8.2c-.1 0 3.5 3.69 8 8.2m-47.6 33.3c-19.47 19.54-20.97 21.1-6.8 7.1 10-9.9 21.37-21.12 25.23-24.93l7.03-6.93 7.17 7.1 25.37 25.12c12.59 12.48 10.43 10.24-7-7.26-13.86-13.91-25.38-25.3-25.6-25.3-.22.01-11.65 11.3-25.4 25.1m57.98-23c.98 1.04 1.84 1.9 1.9 1.9.3 0-.01-.36-1.78-2.02L234.6 75l1.78 1.9m4.62 4.7c.86.88 1.65 1.6 1.76 1.6.11 0-.5-.72-1.36-1.6-.86-.88-1.65-1.6-1.76-1.6-.11 0 .5.72 1.36 1.6m4.58 4.5c.98 1.05 1.84 1.9 1.9 1.9.3 0-.01-.36-1.78-2.02l-1.9-1.78 1.78 1.9m-87.98 4.1c-.97.99-1.68 1.8-1.57 1.8.11 0 1-.81 1.97-1.8s1.68-1.8 1.57-1.8c-.11 0-1 .81-1.97 1.8m92.2.2c.86.88 1.65 1.6 1.76 1.6.11 0-.5-.72-1.36-1.6-.86-.88-1.65-1.6-1.76-1.6-.11 0 .5.72 1.36 1.6m-96.6 4.2c-.97.99-1.68 1.8-1.57 1.8.11 0 1-.81 1.97-1.8s1.68-1.8 1.57-1.8c-.11 0-1 .81-1.97 1.8m101 .2c.86.88 1.65 1.6 1.76 1.6.11 0-.5-.72-1.36-1.6-.86-.88-1.65-1.6-1.76-1.6-.11 0 .5.72 1.36 1.6m-105.22 4.1l-1.58 1.7 1.7-1.58c1.58-1.47 1.88-1.82 1.58-1.82-.06 0-.83.77-1.7 1.7m109.8.4c.98 1.05 1.84 1.9 1.9 1.9.3 0-.01-.36-1.78-2.02L257 97.4l1.78 1.9m-114.2 4L143 105l1.7-1.58c1.58-1.47 1.88-1.82 1.58-1.82-.06 0-.83.77-1.7 1.7m121.02 2.9a81.47 81.47 0 004.79 4.6c.1 0-1.87-2.07-4.39-4.6a81.47 81.47 0 00-4.79-4.6c-.1 0 1.87 2.07 4.39 4.6m-125.2 1.2c-.97.99-1.68 1.8-1.57 1.8.11 0 1-.81 1.97-1.8s1.68-1.8 1.57-1.8c-.11 0-1 .81-1.97 1.8m130.73 5.38c.37.87.73 1.42.8 1.23.12-.36-1.02-2.81-1.31-2.81-.09 0 .14.71.51 1.58m-136.14 3.32c-.13.72-.07 1.75.14 2.3.32.83.4.6.4-1.3.01-2.58-.18-2.93-.54-1m137.01-.72c0 .31.18.68.4.82.22.14.4-.12.4-.58 0-.45-.18-.82-.4-.82-.22 0-.4.26-.4.58m-68.7 1.3c.6.1 1.6.1 2.2 0 .6-.09.11-.16-1.1-.16-1.21 0-1.7.08-1.1.17m-5.54 1.3c-1.58.79-3.42 2.28-5.56 4.5-2.86 2.96-2.92 3.05-.6.9 4.7-4.34 5.07-4.63 7.44-5.6 1.3-.54 2.07-.98 1.72-.98-.35 0-1.7.52-3 1.17m12.64.23c1.88.87 6.85 5.66 34.4 33.1L277 183.4l-30-30.15c-36.78-36.96-34.72-35.02-37.8-35.8-.55-.15-.01.2 1.2.76m61.88-.05c-.16.41-.2.85-.09.96.37.37.69-.23.53-.99-.14-.7-.16-.7-.44.03M186.8 128.2c-.97.99-1.68 1.8-1.57 1.8.11 0 1-.81 1.97-1.8s1.68-1.8 1.57-1.8c-.11 0-1 .81-1.97 1.8m-42.1-.31c.72.09 1.89.09 2.6 0 .71-.09.13-.16-1.3-.16-1.43 0-2.01.07-1.3.16m115.6 0c.71.09 1.88.09 2.6 0 .72-.09.13-.16-1.3-.16-1.43 0-2.02.07-1.3.16M183 132c-.86.88-1.8 1.6-2.08 1.6-.29 0-.52.18-.52.4 0 .78.65.38 2.6-1.6 1.08-1.1 1.88-2 1.77-2-.12 0-.91.72-1.77 1.6m-12.88 12.8c-5.5 5.5-10.21 10-10.46 10s-.46.22-.46.48c0 .27-.67 1.21-1.5 2.1-.81.9 3.96-3.78 10.6-10.38 6.66-6.6 12.1-12.04 12.1-12.1 0-.33-1.19.81-10.28 9.9m26.68 12.7l-7.4 7.5 7.46-7.36 7.46-7.35 6.19 6.15c3.4 3.39 8.77 8.68 11.94 11.76 3.16 3.08.44.24-6.05-6.3a495.24 495.24 0 00-12-11.9c-.12 0-3.54 3.38-7.6 7.5m-42 2.18c0 .27-.67 1.21-1.5 2.1-1.07 1.16-.9 1.06.6-.37 2.34-2.2 2.34-2.21 1.5-2.21-.33 0-.6.22-.6.48m-4 4c0 .27-.68 1.21-1.5 2.1l-1.5 1.62 1.53-1.4c1.7-1.56 2.54-2.8 1.88-2.8-.22 0-.41.22-.41.48m30.4 8.92c-4.29 4.29-7.7 7.8-7.6 7.8.12 0 3.71-3.51 8-7.8s7.7-7.8 7.6-7.8c-.12 0-3.71 3.51-8 7.8m-34.8-4.48c0 .55-2.42 3.08-2.95 3.08-.42 0-1.45 1.06-1.45 1.5 0 .49-2.55 2.9-3.08 2.9-.24 0-.55.3-.69.66-.36.93.42.3 4.68-3.85 3.6-3.5 4.66-4.81 3.9-4.81-.22 0-.41.24-.41.52m83.58 7.58c1.66 1.77 2.02 2.08 2.02 1.78 0-.06-.85-.92-1.9-1.9l-1.9-1.78 1.78 1.9m-93.6 3l-1.38 1.5 1.5-1.38c.82-.76 1.5-1.43 1.5-1.5 0-.3-.34-.02-1.62 1.38m98.42 1.9c.75.77 1.45 1.4 1.56 1.4.1 0-.41-.63-1.16-1.4a8.71 8.71 0 00-1.56-1.4c-.1 0 .41.63 1.16 1.4m-63.6 2c-.97.99-1.68 1.8-1.57 1.8.11 0 1-.81 1.97-1.8s1.68-1.8 1.57-1.8c-.11 0-1 .81-1.97 1.8m-38.8 0c-.75.77-1.6 1.4-1.88 1.4-.28 0-.52.19-.52.41 0 .63 1.2-.13 2.78-1.78.76-.78 1.29-1.43 1.18-1.43-.11 0-.81.63-1.56 1.4m106.4 2c.75.77 1.45 1.4 1.56 1.4.1 0-.41-.63-1.16-1.4a8.71 8.71 0 00-1.56-1.4c-.1 0 .41.63 1.16 1.4m47.2 8a300 300 0 009.2 9c.1 0-3.85-4.05-8.8-9a300 300 0 00-9.2-9c-.1 0 3.85 4.05 8.8 9M166.8 187c-.97.99-1.68 1.8-1.57 1.8.11 0 1-.81 1.97-1.8s1.68-1.8 1.57-1.8c-.11 0-1 .81-1.97 1.8m-38.8 0c-.75.77-1.6 1.4-1.88 1.4-.29 0-.52.19-.52.41 0 .63 1.2-.13 2.78-1.78.76-.78 1.29-1.43 1.18-1.43-.11 0-.81.63-1.56 1.4m115.58 2.3c1.66 1.77 2.02 2.08 2.02 1.78 0-.06-.85-.92-1.9-1.9l-1.9-1.78 1.78 1.9M162 191.8c-.97.99-1.68 1.8-1.57 1.8.11 0 1-.81 1.97-1.8s1.68-1.8 1.57-1.8c-.11 0-1 .81-1.97 1.8m86.4 2.4c.75.77 1.45 1.4 1.56 1.4.1 0-.41-.63-1.16-1.4a8.71 8.71 0 00-1.56-1.4c-.1 0 .41.63 1.16 1.4m-90.8 2c-.97.99-1.68 1.8-1.57 1.8.11 0 1-.81 1.97-1.8s1.68-1.8 1.57-1.8c-.11 0-1 .81-1.97 1.8m95.4 2.6c1.08 1.1 2.06 2 2.17 2 .11 0-.69-.9-1.77-2s-2.06-2-2.17-2c-.11 0 .69.9 1.77 2m-137.22.5l-1.18 1.3 1.3-1.17c1.21-1.1 1.48-1.43 1.17-1.43-.06 0-.65.59-1.3 1.3m20.83 18l-18.8 18.9 18.9-18.8a2546.2 2546.2 0 0018.9-18.9c0-.28-1.53 1.23-19 18.8m120.8-14.1c1.08 1.1 2.06 2 2.17 2 .11 0-.69-.9-1.77-2s-2.06-2-2.17-2c-.11 0 .69.9 1.77 2m44.4 5.2c3.51 3.52 6.48 6.4 6.6 6.4.1 0-2.69-2.88-6.2-6.4-3.51-3.52-6.48-6.4-6.6-6.4-.1 0 2.69 2.88 6.2 6.4m-100.8-.04c-.66.14.56.25 2.72.25s3.5-.13 3-.27a16.4 16.4 0 00-5.72.02m-5.6 2a25.1 25.1 0 00-4.4 3.7l-2.4 2.54 2.4-2.28a33.56 33.56 0 014.78-3.7c1.3-.78 2.2-1.42 2-1.42-.21 0-1.28.53-2.38 1.17m16.32.13c1.85 1.04 16.56 15.53 72.59 71.5l70.27 70.2-69.79-69.97c-76.1-76.31-70.7-70.97-73.07-72.18-2.6-1.31-2.6-1 0 .45m54.48 1.5a23.6 23.6 0 002.57 2.4c.12 0-.86-1.08-2.17-2.4a23.6 23.6 0 00-2.58-2.4c-.1 0 .87 1.08 2.18 2.4m44.15 6.15c.36.75.72 1.3.8 1.22.24-.22-.81-2.57-1.15-2.57-.16 0 0 .6.35 1.35m-124.58 1.15l-1.17 1.3 1.3-1.17c1.21-1.1 1.48-1.43 1.17-1.43-.06 0-.65.59-1.3 1.3m-8.57 8.5c-.97.99-1.68 1.8-1.57 1.8.11 0 1-.81 1.97-1.8s1.68-1.8 1.57-1.8c-.11 0-1 .81-1.97 1.8m-4.42 4.5l-1.38 1.5 1.5-1.38c1.4-1.28 1.68-1.62 1.38-1.62-.07 0-.74.67-1.5 1.5m-3.17 3.09c-.5.54-1.13.87-1.37.73-.24-.13-.3-.1-.14.08.17.19 0 .67-.36 1.07-1.33 1.46-.26.68 1.46-1.07.97-.99 1.67-1.8 1.55-1.8-.11 0-.63.44-1.14.99m-67.21.8c0 .28 2.45 1.5 2.63 1.31.09-.09-.47-.46-1.23-.82-.77-.37-1.4-.59-1.4-.48m193.88 1.84c.32.32.65.32 1.18.01.65-.37.6-.43-.44-.44-.86 0-1.06.11-.74.43m2.32-.04c.14.22.5.4.8.4.3 0 .66-.18.8-.4.14-.23-.2-.4-.8-.4-.6 0-.94.17-.8.4m-190.87.49c.61.39 4.17.4 4.4.01.1-.16-.95-.3-2.34-.3-1.4-.01-2.32.12-2.06.29m56.65 2.21l-1.38 1.5 1.5-1.38c1.4-1.28 1.68-1.62 1.38-1.62-.07 0-.74.68-1.5 1.5m-5.79 5.8l-3.99 4.1 4.1-4c3.8-3.7 4.28-4.2 4-4.2-.07 0-1.91 1.84-4.1 4.1m37.79 9.8l-7.39 7.5 7.2-7.1c7.7-7.58 7.53-7.46 8.73-6.4.56.5.73.54.6.13-.75-2.38-1.42-1.96-9.14 5.88m-48.4.79l-6.19 6.3 6.3-6.2c5.85-5.75 6.48-6.4 6.2-6.4-.06 0-2.9 2.83-6.3 6.3m59.97-3.76c.98 1.01 1.87 1.75 1.98 1.65.26-.26-1.94-2.55-2.95-3.07-.44-.23 0 .41.97 1.42m4.2 4.2c1.1 1.12 2.07 1.95 2.18 1.84.26-.25-2.33-2.93-3.35-3.46-.44-.23.09.5 1.18 1.62m4.72 4.64c1.04.96 1.9 1.95 1.9 2.19 0 .23.2.43.46.43.62 0 32.72 32.07 32.73 32.7 0 .27.26.5.56.5.61 0 3.85 3.35 3.85 4 0 .22.23.4.52.4.65 0 3.48 2.86 3.48 3.52 0 .26.23.48.52.48.65 0 3.88 3.26 3.88 3.92 0 .26.22.48.5.49.27 0 10.79 10.3 23.36 22.9a2818.18 2818.18 0 0024 23.88c.63.54-20.91-21.1-47.86-48.1s-49.18-49.08-49.4-49.07c-.22 0 .45.8 1.5 1.76m-90.87 16.72c-8.45 8.42-15.56 15.24-15.8 15.17-.24-.08-.3 0-.15.15.42.41-8.51 9.4-9.04 9.1-.24-.13-.3-.1-.12.1.17.19-11.62 12.32-26.2 26.96-14.59 14.64-5.5 5.65 20.18-19.98 25.68-25.63 46.7-46.64 46.7-46.7 0-.27-1.25.95-15.57 15.2M186 266.2c-.75.77-1.19 1.39-.98 1.37.36-.03 2.83-2.77 2.5-2.77-.1 0-.77.63-1.52 1.4m-4.4 4.4c-.74.76-1.25 1.48-1.14 1.6.11.1.78-.52 1.5-1.4 1.57-1.97 1.44-2.05-.35-.2m-4.61 4.6c-.86.88-1.38 1.6-1.15 1.6.23 0 1-.72 1.7-1.6.7-.88 1.23-1.6 1.15-1.6-.08 0-.84.72-1.7 1.6m-9.8 9.87c-4.07 4.11-6.68 6.85-5.8 6.07 3.04-2.67 13.77-13.54 13.37-13.54-.1 0-3.5 3.36-7.57 7.47m-9.62 9.61l-1.78 1.88 1.66-1.38c1.39-1.15 2.42-2.38 2.01-2.38-.06 0-.9.85-1.89 1.88m-4.2 4.22l-1.98 2.1 2.1-1.99a28 28 0 002.1-2.1c0-.3-.37.04-2.22 1.99m-4.58 4.5c-.97.99-1.68 1.8-1.57 1.8.11 0 1-.81 1.97-1.8s1.68-1.8 1.57-1.8c-.11 0-1 .81-1.97 1.8m-4.4 4.4c-.97.99-1.68 1.8-1.57 1.8.11 0 1-.81 1.97-1.8s1.68-1.8 1.57-1.8c-.11 0-1 .81-1.97 1.8m-4.8 4.8c-.97.99-1.68 1.8-1.57 1.8.11 0 1-.81 1.97-1.8s1.68-1.8 1.57-1.8c-.11 0-1 .81-1.97 1.8m-34.8 34.9l-32.6 32.7 32.7-32.6a7614.96 7614.96 0 0032.7-32.7c0-.28-2.5 2.2-32.8 32.6m252.4 7.5a27.42 27.42 0 002.78 2.6c.1 0-.96-1.17-2.38-2.6a27.42 27.42 0 00-2.78-2.6c-.1 0 .96 1.17 2.38 2.6m3.73 4.57c.47.87.92 1.51 1 1.44.19-.2-1.05-2.51-1.5-2.79-.2-.13.02.48.5 1.35m-46.3.07c1.1 1.22 19.33 19.32 19.68 19.55.16.1-4.3-4.45-9.9-10.1a462.02 462.02 0 00-10.37-10.29c-.09 0 .18.38.6.84M46.96 375.8c.32.66 1.53 2.1 2.7 3.2l2.12 2-2.2-2.42a42.34 42.34 0 01-2.69-3.2c-.27-.43-.24-.24.07.42m289.42 5.18c.7.84 2.81 1.96 3.12 1.65.13-.13.05-.23-.18-.23-.22 0-1.1-.47-1.95-1.05-.85-.58-1.3-.74-.99-.37m8.52 3.31c.83.09 2.18.09 3 0 .83-.09.15-.16-1.5-.16s-2.32.07-1.5.16" fill="#3b812b"/><path d="M194.78 6.7l-1.38 1.5 1.5-1.38c1.4-1.28 1.68-1.62 1.38-1.62-.07 0-.74.67-1.5 1.5m17.82.1c.86.88 1.65 1.6 1.76 1.6.11 0-.5-.72-1.36-1.6-.86-.88-1.65-1.6-1.76-1.6-.11 0 .5.72 1.36 1.6m-22.22 4.3L189 12.6l1.5-1.38c.82-.76 1.5-1.43 1.5-1.5 0-.3-.34-.02-1.62 1.38m26.62.1c.86.88 1.65 1.6 1.76 1.6.11 0-.5-.72-1.36-1.6-.86-.88-1.65-1.6-1.76-1.6-.11 0 .5.72 1.36 1.6m-31.42 4.7l-1.38 1.5 1.5-1.38c.83-.76 1.5-1.43 1.5-1.5 0-.3-.34-.02-1.62 1.38m-4.6 4.6L179 22.6l2.1-1.99a28 28 0 002.1-2.1c0-.3-.37.04-2.21 1.99m-3.27 2.57c.32.52-2.67 3.44-3.1 3.04-.2-.17-.22-.09-.06.19.38.66.24.74 2.2-1.25 1.22-1.25 1.57-1.85 1.22-2.07-.3-.18-.4-.14-.26.1m-6.13 6.82l-2.19 2.3 2.3-2.19c1.27-1.2 2.3-2.23 2.3-2.3 0-.3-.38.05-2.41 2.19m53.01 4.9c3.52 3.52 6.48 6.4 6.6 6.4.1 0-2.69-2.88-6.2-6.4-3.51-3.52-6.48-6.4-6.6-6.4-.1 0 2.69 2.88 6.2 6.4m-56.5 1c0 .88.09 1.2.18.7.1-.5.1-1.22 0-1.6-.1-.39-.18.02-.18.9m67.1 39.6c.52.55 1 1 1.09 1 .33 0-1.32-1.98-1.66-1.99-.2 0 .05.44.57.99M255.8 96a42.08 42.08 0 003.37 3.2c.18 0-1.16-1.43-4.71-5.04a7.28 7.28 0 00-1.6-1.36c-.13 0 1.19 1.44 2.94 3.2m-102.83-1.5l-1.17 1.3 1.3-1.17c1.21-1.1 1.48-1.43 1.18-1.43-.07 0-.66.58-1.3 1.3m-4.37 4.29c-.62.65-1.31 1.07-1.53.93-.24-.14-.28-.04-.1.25.26.42 3.02-1.65 3.02-2.25 0-.3-.32-.04-1.39 1.07m110.99.92c0 .06 1.4 1.46 3.1 3.1l3.1 2.99-2.99-3.1c-2.78-2.88-3.21-3.28-3.21-2.99m-115.62 3.79l-1.38 1.5 1.5-1.38c.83-.76 1.5-1.43 1.5-1.5 0-.3-.34-.02-1.62 1.38m87.22-.97c0 .06.59.65 1.3 1.3l1.3 1.17-1.18-1.3c-1.09-1.21-1.42-1.48-1.42-1.17m-91.62 5.37l-1.38 1.5 1.5-1.38c.83-.76 1.5-1.43 1.5-1.5 0-.3-.34-.02-1.62 1.38m96.02-.98c0 .07.59.66 1.3 1.3l1.3 1.18-1.17-1.3c-1.1-1.21-1.43-1.48-1.43-1.17m33.17 2.02c1.08 1.17 1.3 1.29 1.01.54-.1-.28-.6-.75-1.09-1.05-.85-.52-.84-.5.08.5m-133.12 3.9c-.25.7-.44 1.48-.42 1.72.01.24.28-.26.6-1.13.31-.86.5-1.63.42-1.72-.09-.08-.36.43-.6 1.13m104.76-.94c0 .16.5.65 1.1 1.07l1.09.77-.97-1.07c-1.02-1.12-1.24-1.26-1.22-.77m5.59 5.5c.75.77 1.45 1.4 1.56 1.4.1 0-.41-.63-1.16-1.4a8.71 8.71 0 00-1.56-1.4c-.1 0 .41.63 1.16 1.4m3.05 3.1c.12.28.88 1.03 1.69 1.68l1.46 1.17-1.58-1.67c-1.69-1.8-1.92-1.97-1.57-1.18m-113.69.24c.12.2.4.85.64 1.46.23.61.52 1.01.64.9.24-.24-.92-2.7-1.27-2.7-.12 0-.12.15 0 .34m9.93 7.54c.38.1 1.01.1 1.4 0 .39-.1.07-.19-.7-.19s-1.09.09-.7.19m115.6 0c.39.1 1.02.1 1.4 0 .38-.1.07-.19-.7-.19s-1.09.09-.7.19m-85.7 11.02c-.59.8-.69 1.08-.25.73.65-.53 1.64-2.03 1.34-2.03-.08 0-.57.59-1.1 1.3m-14.01 14.2l-1.38 1.5 1.5-1.38c.82-.76 1.5-1.43 1.5-1.5 0-.3-.34-.02-1.62 1.38m-4.06 3.9c-1.03 1-1.74 1.8-1.58 1.8.16 0 1.09-.81 2.06-1.8 2.28-2.32 1.96-2.31-.48 0m-4.41 4.41c-.83.76-1.36 1.39-1.18 1.39.17 0 .92-.63 1.67-1.4 1.74-1.8 1.44-1.79-.5.01m-3.98 4c-1.03.98-1.74 1.79-1.58 1.79.16 0 1.09-.81 2.06-1.8 2.28-2.32 1.96-2.31-.48 0m38.66 1.1l-1.18 1.3 1.3-1.17c1.21-1.1 1.48-1.43 1.18-1.43-.07 0-.66.59-1.3 1.3m-42.6 3l-1.38 1.5 1.5-1.38c.82-.76 1.5-1.43 1.5-1.5 0-.3-.34-.02-1.62 1.38m38.4 1.2l-1.38 1.5 1.5-1.38c.82-.76 1.5-1.43 1.5-1.5 0-.3-.34-.02-1.62 1.38m-42.8 3.2l-1.38 1.5 1.5-1.38c.82-.76 1.5-1.43 1.5-1.5 0-.3-.34-.02-1.62 1.38m38.6 1l-1.18 1.3 1.3-1.17c1.21-1.1 1.48-1.43 1.18-1.43-.07 0-.66.59-1.3 1.3m-42.8 3.2l-1.58 1.7 1.7-1.58c1.58-1.47 1.88-1.82 1.58-1.82-.06 0-.83.76-1.7 1.7m-3.96 3.88l-1.58 1.82 1.76-1.69c.97-.92 1.68-1.75 1.58-1.82-.1-.08-.89.68-1.76 1.69m-4.2 4.2l-1.78 2.02 1.96-1.89c1.08-1.03 1.88-1.94 1.78-2.02-.1-.07-.98.78-1.96 1.89m-4.4 4.4l-1.78 2.02 1.96-1.89c1.08-1.03 1.88-1.94 1.78-2.02-.1-.07-.98.78-1.96 1.89M119.6 195c-.97.99-1.68 1.8-1.57 1.8.11 0 1-.81 1.97-1.8s1.68-1.8 1.57-1.8c-.11 0-1 .81-1.97 1.8m-4.48 4.4c-1.03 1-1.74 1.8-1.58 1.8.16 0 1.09-.81 2.06-1.8 2.28-2.32 1.96-2.31-.48 0m-4 4c-1.03 1-1.74 1.8-1.58 1.8.16 0 1.09-.81 2.06-1.8 2.28-2.32 1.96-2.31-.48 0m-4.14 4.3l-1.58 1.7 1.7-1.58c1.58-1.47 1.88-1.82 1.58-1.82-.06 0-.83.76-1.7 1.7m-4 4l-1.58 1.7 1.7-1.58a17.9 17.9 0 001.7-1.7c0-.3-.35 0-1.82 1.58m-5.13 5.6l-.72 1.3.83-1c.73-.89 1.05-1.6.73-1.6-.07 0-.44.59-.84 1.3m124.53 2.4c.98 1.05 1.84 1.9 1.9 1.9.3 0-.01-.36-1.78-2.02l-1.9-1.78 1.78 1.9m51.62.1c.75.77 1.45 1.4 1.56 1.4.1 0-.41-.63-1.16-1.4a8.71 8.71 0 00-1.56-1.4c-.1 0 .41.63 1.16 1.4m-91.4 2.45l-2 1.83 2.1-1.68c1.82-1.45 2.4-2.02 2-2-.05.01-1 .84-2.1 1.85m44.58 2.25c.98 1.04 1.84 1.9 1.9 1.9.3 0-.01-.36-1.78-2.02l-1.9-1.78 1.78 1.9m50.02-1.57c0 .06.59.65 1.3 1.3l1.3 1.17-1.18-1.3c-1.09-1.21-1.42-1.48-1.42-1.17m-100.21 4.57l-.7 1.1 1.05-.97c1.15-1.05 1.25-1.23.7-1.23-.19 0-.66.5-1.05 1.1m53.01-.46c0 .2 2.03 2.35 4.5 4.77l4.5 4.39-4.4-4.59a218.1 218.1 0 01-4.5-4.76c-.06-.1-.1-.01-.1.19m53.2 1.96c.75.77 1.45 1.4 1.56 1.4.1 0-.41-.63-1.16-1.4a8.71 8.71 0 00-1.56-1.4c-.1 0 .41.63 1.16 1.4m-110.44 2.7c-.47.9-.47.9.38.14.96-.85 1.04-1.04.47-1.04-.2 0-.6.4-.85.9m114.84 1.7c.75.77 1.45 1.4 1.56 1.4.1 0-.41-.63-1.16-1.4a8.71 8.71 0 00-1.56-1.4c-.1 0 .41.63 1.16 1.4m20.17.7l-1.17 1.3 1.3-1.18a9.97 9.97 0 001.3-1.3c0-.3-.33-.03-1.43 1.18m-138.86 1.2c-.96 1.24-.95 1.61.03.73a6.8 6.8 0 001.06-1.1c0-.33-.74-.08-1.09.37m72.29 3.3c1.2 1.21 2.26 2.2 2.37 2.2.11 0-.78-.99-1.97-2.2a20.08 20.08 0 00-2.37-2.2c-.11 0 .78.99 1.97 2.2m-77 1.4c-1.07 1.18-.5 1.37.6.2.52-.55.76-1 .53-1-.22 0-.73.36-1.13.8m81.78 3.3c1.66 1.77 2.02 2.08 2.02 1.78 0-.06-.85-.92-1.9-1.9l-1.9-1.78 1.78 1.9m-85.64.67c-.52.42-.84.87-.7 1 .12.12.65-.22 1.16-.77 1.11-1.19.87-1.31-.46-.23m90.04 3.73c.98 1.05 1.84 1.9 1.9 1.9.3 0-.01-.36-1.78-2.02l-1.9-1.78 1.78 1.9m-94.44.67c-.51.42-.84.87-.7 1 .12.12.65-.22 1.16-.77 1.11-1.19.87-1.31-.46-.23M255 252.4c.86.88 1.65 1.6 1.76 1.6.11 0-.5-.72-1.36-1.6-.86-.88-1.65-1.6-1.76-1.6-.11 0 .5.72 1.36 1.6m4.58 4.5c.98 1.05 1.84 1.9 1.9 1.9.3 0-.01-.36-1.78-2.02l-1.9-1.78 1.78 1.9m-111.94-.08c-.52.44-.87.88-.76.99.1.1.6-.26 1.12-.81 1.12-1.2.96-1.28-.36-.18m116.34 4.48c.98 1.05 1.84 1.9 1.9 1.9.3 0-.01-.36-1.78-2.02l-1.9-1.78 1.78 1.9m-76.8 4.2c-.98 1.04-1.23 1.4-.56.8.67-.6 1.42-1.1 1.66-1.1.42 0 1.08-1.18.8-1.45-.07-.07-.93.72-1.9 1.75m-47.8-.2l-1.18 1.3 1.3-1.18c1.21-1.09 1.48-1.42 1.18-1.42-.07 0-.66.58-1.3 1.3m129.22.7c1.08 1.1 2.06 2 2.17 2 .11 0-.69-.9-1.77-2s-2.06-2-2.17-2c-.11 0 .69.9 1.77 2m-85.42 3.47c-1.35 1.42-1.46 1.61-.45.8a6.74 6.74 0 011.6-1.07c.16 0 .5-.36.78-.8.87-1.4-.08-.87-1.93 1.07m88.66-.74c-.11.19.73 1.22 1.88 2.3l2.08 1.97-1.91-2.02c-1.05-1.12-1.78-2.15-1.63-2.3.15-.16.16-.28.03-.28s-.34.15-.45.33m-92.71 4.91l-2.13 2.04 2.1-1.67c2-1.6 2.79-2.41 2.35-2.41-.1 0-1.15.92-2.32 2.04m-48.37.06c-.47.9-.47.9.38.14.96-.85 1.04-1.04.47-1.04-.2 0-.6.4-.85.9m149.44 3.9a74.63 74.63 0 004.59 4.4c.1 0-1.78-1.98-4.19-4.4a74.63 74.63 0 00-4.59-4.4c-.1 0 1.78 1.98 4.19 4.4m-105.26.23l-1.94 1.84 2.1-1.7c1.16-.93 2.1-1.76 2.1-1.83 0-.35-.46 0-2.26 1.7m-48.03-.54c-.78 1.01-1.05 1.63-.57 1.34.47-.3 1.42-1.84 1.12-1.84-.09 0-.34.22-.55.5m30.07 18.37c-8.67 8.62-15.7 15.75-15.6 15.83.08.1 7.28-6.96 15.99-15.67 8.7-8.7 15.73-15.83 15.6-15.83-.12 0-7.32 7.05-16 15.67M287.2 284.6c1.2 1.21 2.26 2.2 2.37 2.2.11 0-.77-.99-1.97-2.2a20.08 20.08 0 00-2.37-2.2c-.11 0 .77.99 1.97 2.2m4.78 4.7c.98 1.05 1.84 1.9 1.9 1.9.3 0-.01-.36-1.78-2.02l-1.9-1.78 1.78 1.9m4.62 4.7c.86.88 1.65 1.6 1.76 1.6.11 0-.5-.72-1.36-1.6-.86-.88-1.65-1.6-1.76-1.6-.11 0 .5.72 1.36 1.6m4.58 4.5c.98 1.05 1.84 1.9 1.9 1.9.3 0-.01-.36-1.78-2.02l-1.9-1.78 1.78 1.9m4.62 4.7c1.08 1.1 2.06 2 2.17 2 .11 0-.69-.9-1.77-2s-2.06-2-2.17-2c-.11 0 .69.9 1.77 2m3.24 2.73c-.11.19.64 1.13 1.68 2.1l1.88 1.77-1.7-1.82c-.95-1-1.6-1.95-1.44-2.1.15-.16.16-.28.03-.28s-.34.15-.45.33m5.76 6.27c1.2 1.21 2.26 2.2 2.37 2.2.11 0-.78-.99-1.97-2.2a20.08 20.08 0 00-2.37-2.2c-.11 0 .78.99 1.97 2.2m4.67 4.67c1.04 1.06 1.99 1.93 2.1 1.93.1 0-.56-.78-1.5-1.72-.93-.95-1.6-1.82-1.48-1.94.12-.11-.07-.2-.4-.2-.4 0 .1.74 1.28 1.93m-184.9 1.23l-1.17 1.3 1.3-1.17c1.21-1.1 1.48-1.43 1.18-1.43-.07 0-.66.58-1.3 1.3m-49.82 1.6c-.47.9-.47.9.38.14.95-.85 1.04-1.04.47-1.04-.2 0-.6.4-.85.9m248.64 11a529.7 529.7 0 0011.78 11.7c.1 0-.66-.87-1.7-1.92-1.05-1.06-1.8-2.05-1.69-2.2.12-.16.08-.18-.07-.06-.16.11-4.7-4.16-10.1-9.5-8.62-8.53-8.4-8.29 1.78 1.98m-203.22-8.2l-1.18 1.3 1.3-1.18c1.21-1.09 1.48-1.42 1.17-1.42-.06 0-.65.59-1.3 1.3m-4.39 4.4l-1.58 1.7 1.7-1.58c1.58-1.47 1.88-1.82 1.58-1.82-.06 0-.83.76-1.7 1.7m-4.4 4.4l-1.58 1.7 1.7-1.58c1.58-1.47 1.88-1.82 1.58-1.82-.06 0-.83.76-1.7 1.7m-4.4 4.4l-1.58 1.7 1.7-1.58c1.58-1.47 1.88-1.82 1.58-1.82-.06 0-.83.76-1.7 1.7m-4.8 4.8l-1.58 1.7 1.7-1.58c1.58-1.47 1.88-1.82 1.58-1.82-.06 0-.83.76-1.7 1.7m237.41 6.4c3.9 4 4.41 4.48 4.41 4.2 0-.07-1.94-2-4.3-4.3l-4.3-4.2 4.2 4.3m-242.22-1.6l-1.58 1.7 1.7-1.58a17.9 17.9 0 001.7-1.7c0-.3-.35 0-1.82 1.58m-4.4 4.4l-1.58 1.7 1.7-1.58c1.58-1.47 1.88-1.82 1.58-1.82-.06 0-.83.76-1.7 1.7m253.22 3.9c1.08 1.1 2.06 2 2.17 2 .11 0-.69-.9-1.77-2s-2.06-2-2.17-2c-.11 0 .69.9 1.77 2m-258.02.9l-1.58 1.7 1.7-1.58c1.58-1.47 1.88-1.82 1.58-1.82-.06 0-.83.76-1.7 1.7m-4.6 4.6l-1.38 1.5 1.5-1.38c1.4-1.28 1.68-1.62 1.38-1.62-.07 0-.74.67-1.5 1.5m-4.4 4.4L87.8 365l1.5-1.38c1.4-1.28 1.68-1.62 1.38-1.62-.07 0-.74.68-1.5 1.5m274.11 4.1c0 .77.08 1.08.19.7.1-.38.1-1.01 0-1.4-.1-.38-.19-.07-.19.7m-278.91.7L83 369.8l1.5-1.38c1.4-1.28 1.68-1.62 1.38-1.62-.07 0-.74.68-1.5 1.5m-4.6 4.6l-1.18 1.3 1.3-1.18a9.97 9.97 0 001.3-1.3c0-.3-.33-.03-1.42 1.18m-31.95 4.8c.11.28.7.84 1.29 1.26 1.08.77 1.08.77-.1-.5-1.28-1.38-1.5-1.52-1.19-.76m287.1 2.5c.26.55.73 1 1.04 1 .4 0 .28-.31-.37-1-1.17-1.25-1.24-1.25-.66 0M60.9 384.28c.38.1 1.02.1 1.4 0 .39-.1.07-.19-.7-.19s-1.09.09-.7.19" fill="#2c6d1c"/><path d="M202.96 15.3l-.76.9.92-.78.91-.78 7.09 6.98 7.08 6.98-7-7.1c-7.74-7.86-7.19-7.44-8.24-6.2m-3.78 3.8l-1.38 1.5 1.5-1.38c.82-.76 1.5-1.43 1.5-1.5 0-.3-.34-.02-1.62 1.38m-4.2 4.2L193.4 25l1.7-1.58a17.9 17.9 0 001.7-1.7c0-.3-.35 0-1.82 1.58m-4 4l-1.18 1.3 1.3-1.18c1.21-1.09 1.48-1.42 1.18-1.42-.07 0-.66.59-1.3 1.3m9.22 21.12c-.56.25-.31.29.8.12a8.28 8.28 0 001.77-.4c.34-.3-1.8-.07-2.57.28m-2.46 1.15c-.69.42-1.38.96-1.52 1.2-.23.37 2.35-1.21 2.94-1.8.39-.38-.23-.13-1.42.6m-3.34 2.93c-.59.8-.69 1.08-.25.73.65-.53 1.64-2.03 1.34-2.03-.08 0-.57.58-1.1 1.3m20.21 1.9a40.74 40.74 0 003.38 3.2c.11 0-1.23-1.44-2.98-3.2a40.74 40.74 0 00-3.38-3.2c-.11 0 1.23 1.44 2.98 3.2m-12.03 22.1l-1.17 1.3 1.23-1.1c1.23-1.12 1.23-1.12 1.96-.3.4.44.9.8 1.1.8.19 0-.13-.45-.73-1-1.3-1.2-.99-1.25-2.39.3m-7.17 7.2l-5.6 5.7 5.7-5.6c5.3-5.2 5.88-5.8 5.6-5.8-.06 0-2.63 2.56-5.7 5.7m17.4.56c0 .22.5.84 1.1 1.37l1.1.97-1-1.2a31.13 31.13 0 01-1.1-1.37c-.06-.09-.1.02-.1.23m-9.3 32.02c.5.1 1.3.1 1.8 0s.09-.17-.9-.17-1.4.08-.9.17m8.51 2.38c.55.36 1.63 1.22 2.41 1.9.79.68.55.38-.52-.66-1.08-1.05-2.16-1.9-2.42-1.9-.25 0-.01.3.53.66m-17.12.84c-.96.94-.98.98-.1.3 1.7-1.32 1.78-1.4 1.5-1.4-.15 0-.78.5-1.4 1.1m-3.71 3.6l-1.38 1.5 1.5-1.38c.82-.76 1.5-1.43 1.5-1.5 0-.3-.34-.02-1.62 1.38m5.62 34.8l-7.4 7.5 7.5-7.4c6.97-6.87 7.68-7.6 7.4-7.6-.06 0-3.44 3.38-7.5 7.5m12.24 51.07c.9.28 1.85.64 2.1.8.25.15.46.17.46.03 0-.36-2.66-1.4-3.49-1.37-.39.01.03.25.93.54m4.76 2.1c1.29 1.32 3.88 3.37 3 2.38-.55-.62-1.54-1.5-2.2-1.95-.66-.46-1.02-.65-.8-.42m-21.2.86c-.44.39-1.43 1.42-2.2 2.28-.86.98-.52.74.9-.6 1.27-1.2 2.3-2.24 2.3-2.3 0-.22-.2-.1-1 .62m3.8 44.76l-7 7.1 7.1-7c6.6-6.5 7.28-7.2 7-7.2-.06 0-3.26 3.2-7.1 7.1m7.97-6.55c.53.65 2.03 1.64 2.03 1.34 0-.08-.59-.57-1.3-1.1-.8-.58-1.08-.68-.73-.24" fill="#345b3c"/></g></svg>